#!OML:ASF E:\Steps\Project 1\Capture day 1\Session 2\Subject.ASF
:FULLY-SPECIFIED
:DEGREES
432
root 23.5223 15.8965 0.688845 -160.278 15.2611 176.463
lowerback -29.0477 -0.532911 -9.29105
upperback -0.020429 3.94322 -4.60132
thorax 15.1366 1.54822 1.6383
lowerneck 2.79356 -1.38511 -1.03695
upperneck 14.3364 -1.45539 5.73374
head 4.29848 -0.0991969 2.11479
rclavicle -4.96962e-015 2.70347e-014
rhumerus -35.4756 -8.06047 -86.3139
rradius 35.6758
rwrist -6.28952
rhand -7.28266 -52.369
rfingers 7.12502
rthumb 18.599 278.5
lclavicle -4.96962e-015 2.70347e-014
lhumerus -34.4056 16.2436 71.2524
lradius 15.53
lwrist -12.8012
lhand -18.1394 -8.37101
lfingers 7.12502
lthumb 8.13577 21.4524
rfemur -28.2838 -1.71526 16.2606
rtibia 67.6605
rfoot -4.34196 -8.38337
rtoes -36.7185
lfemur -37.5963 -2.13273 -23.5082
ltibia 19.7644
lfoot -2.8222 5.42765
ltoes -30.3667
433
root 23.5104 15.9267 0.570572 -160.22 15.0873 176.585
lowerback -29.1232 -0.657971 -9.16256
upperback 0.142401 3.72142 -4.50406
thorax 15.3818 1.42954 1.59258
lowerneck 2.69713 -1.25692 -1.00684
upperneck 14.0217 -1.31067 5.68244
head 4.1944 -0.0514868 2.08807
rclavicle -1.98785e-015 9.54166e-015
rhumerus -35.5849 -7.70473 -86.1792
rradius 35.5911
rwrist -5.95769
rhand -6.84811 -52.5648
rfingers 7.12502
rthumb 19.0169 278.345
lclavicle -1.98785e-015 9.54166e-015
lhumerus -33.9655 15.0175 72.2018
lradius 16.8396
lwrist -11.1723
lhand -18.5723 -8.81701
lfingers 7.12502
lthumb 7.71801 21.0221
rfemur -29.7889 -1.81085 16.5749
rtibia 68.78
rfoot -5.36209 -8.33493
rtoes -35.9613
lfemur -37.0647 -2.41943 -23.4613
ltibia 19.5515
lfoot -3.17537 5.42568
ltoes -27.9333
434
root 23.5015 15.9549 0.457872 -160.13 14.9285 176.764
lowerback -28.8984 -0.771718 -9.09312
upperback 0.0771053 3.4677 -4.32722
thorax 15.207 1.32045 1.64346
lowerneck 2.76658 -1.3082 -1.01853
upperneck 14.0327 -1.37339 5.62687
head 4.18689 -0.0860006 2.06916
rclavicle -8.15017e-015 1.27222e-014
rhumerus -35.9503 -7.48432 -85.8638
rradius 35.4876
rwrist -5.62295
rhand -6.68985 -52.1889
rfingers 7.12502
rthumb 19.1691 278.736
lclavicle -8.15017e-015 1.27222e-014
lhumerus -33.911 13.8029 73.0452
lradius 18.2457
lwrist -9.68648
lhand -18.7869 -8.83533
lfingers 7.12502
lthumb 7.51081 21.0113
rfemur -31.2329 -1.87262 16.9348
rtibia 69.4381
rfoot -6.0821 -8.21545
rtoes -36.393
lfemur -36.5976 -2.55603 -23.3714
ltibia 19.4013
lfoot -3.51379 5.29084
ltoes -27.4456
435
root 23.4919 15.9816 0.343883 -160.131 14.6922 176.917
lowerback -28.7638 -0.862217 -8.94321
upperback 0.139562 3.24435 -4.20617
thorax 15.234 1.21664 1.60629
lowerneck 2.84345 -1.34868 -1.02564
upperneck 13.9788 -1.43063 5.6428
head 4.15539 -0.117499 2.07285
rclavicle -1.5704e-014 -3.49861e-014
rhumerus -36.1057 -7.58184 -85.5308
rradius 35.2181
rwrist -5.00567
rhand -6.71134 -51.6598
rfingers 7.12502
rthumb 19.1484 279.263
lclavicle -1.5704e-014 -3.49861e-014
lhumerus -33.729 12.5448 73.8812
lradius 19.8062
lwrist -8.12191
lhand -19.0324 -8.87856
lfingers 7.12502
lthumb 7.2739 20.9764
rfemur -32.6387 -1.93261 17.2752
rtibia 70.0325
rfoot -6.77854 -7.98714
rtoes -37.0173
lfemur -36.0014 -2.72249 -23.3359
ltibia 19.179
lfoot -3.76623 5.15415
ltoes -27.1451
436
root 23.4801 16.0088 0.229317 -160.231 14.3514 176.894
lowerback -28.5072 -1.01026 -8.94653
upperback 0.202602 2.995 -4.12609
thorax 15.1992 1.0976 1.59454
lowerneck 2.82435 -1.33647 -1.03766
upperneck 13.9385 -1.42117 5.65657
head 4.14441 -0.116325 2.07909
rclavicle 2.50469e-014 -7.15625e-014
rhumerus -36.3156 -8.05425 -85.045
rradius 34.8531
rwrist -4.00633
rhand -6.62729 -51.7279
rfingers 7.12502
rthumb 19.2292 279.203
lclavicle 2.50469e-014 -7.15625e-014
lhumerus -33.4916 11.3778 74.635
lradius 21.2924
lwrist -6.76534
lhand -19.6286 -9.20378
lfingers 7.12502
lthumb 6.69836 20.6703
rfemur -33.9729 -2.0432 17.4331
rtibia 70.5903
rfoot -7.52463 -7.71384
rtoes -37.8597
lfemur -35.346 -3.04787 -23.5048
ltibia 18.9777
lfoot -4.0678 5.03661
ltoes -26.2156
437
root 23.4696 16.0323 0.11727 -160.251 13.9632 176.798
lowerback -28.3665 -1.26389 -9.05892
upperback 0.203312 2.66318 -4.0285
thorax 15.1457 0.940693 1.63054
lowerneck 3.00901 -1.29014 -1.16849
upperneck 14.0675 -1.34135 5.69864
head 4.1554 -0.0728568 2.12159
rclavicle 2.46493e-014 -3.81667e-014
rhumerus -36.808 -8.2512 -84.5522
rradius 34.7487
rwrist -3.30585
rhand -6.50188 -51.7844
rfingers 7.12502
rthumb 19.3498 279.158
lclavicle 2.46493e-014 -3.81667e-014
lhumerus -33.3599 10.2538 75.259
lradius 22.687
lwrist -5.37763
lhand -20.2093 -9.43065
lfingers 7.12502
lthumb 6.13779 20.4604
rfemur -35.3139 -2.21307 17.5226
rtibia 70.9047
rfoot -8.07565 -7.32641
rtoes -39.1659
lfemur -34.8905 -3.30359 -23.802
ltibia 18.9802
lfoot -4.37655 4.76271
ltoes -25.7004
438
root 23.4627 16.0513 0.00030384 -160.22 13.5402 176.913
lowerback -28.4088 -1.46399 -8.97238
upperback 0.266378 2.34538 -3.88612
thorax 15.2611 0.788489 1.61661
lowerneck 3.23041 -1.23654 -1.24871
upperneck 14.1252 -1.25344 5.74118
head 4.13228 -0.0261833 2.15339
rclavicle 2.34566e-014 -4.92986e-014
rhumerus -37.2809 -8.34685 -84.1275
rradius 34.8221
rwrist -3.04525
rhand -6.21774 -52.2248
rfingers 7.12502
rthumb 19.623 278.746
lclavicle 2.34566e-014 -4.92986e-014
lhumerus -33.2012 9.12977 75.8008
lradius 24.0576
lwrist -3.9454
lhand -20.7137 -9.74055
lfingers 7.12502
lthumb 5.65079 20.1641
rfemur -36.4381 -2.32989 17.8179
rtibia 70.7593
rfoot -8.57688 -6.89201
rtoes -39.6592
lfemur -34.3584 -3.45245 -23.861
ltibia 18.8583
lfoot -4.52337 4.42613
ltoes -25.8196
439
root 23.4548 16.0704 -0.116824 -160.248 13.1649 177.106
lowerback -28.342 -1.52219 -8.76707
upperback 0.360212 2.15896 -3.77766
thorax 15.3582 0.701367 1.55174
lowerneck 3.26548 -1.18266 -1.2236
upperneck 14.1481 -1.18231 5.84505
head 4.13221 0.0182373 2.18701
rclavicle 2.40529e-014 1.11319e-014
rhumerus -37.6874 -8.90188 -83.6044
rradius 34.883
rwrist -2.81414
rhand -5.71899 -53.3252
rfingers 7.12502
rthumb 20.1025 277.695
lclavicle 2.40529e-014 1.11319e-014
lhumerus -32.874 7.94768 76.3333
lradius 25.4636
lwrist -2.6924
lhand -21.2579 -9.98413
lfingers 7.12502
lthumb 5.12538 19.9339
rfemur -37.4004 -2.40012 18.1551
rtibia 70.3133
rfoot -9.16925 -6.54233
rtoes -40.1053
lfemur -33.6189 -3.70671 -23.7531
ltibia 18.4431
lfoot -4.59194 4.29427
ltoes -25.1474
440
root 23.4444 16.0893 -0.22651 -160.344 12.8989 177.112
lowerback -28.1414 -1.58243 -8.73272
upperback 0.418002 2.02938 -3.74112
thorax 15.3399 0.639893 1.5214
lowerneck 3.27349 -1.17467 -1.16923
upperneck 14.3016 -1.16398 5.93257
head 4.18652 0.0454562 2.21188
rclavicle 2.44505e-014 -6.04305e-014
rhumerus -38.0289 -9.5444 -83.038
rradius 34.7682
rwrist -2.70339
rhand -5.78977 -53.6796
rfingers 7.12502
rthumb 20.0344 277.333
lclavicle 2.44505e-014 -6.04305e-014
lhumerus -32.6325 6.71423 76.8078
lradius 27.0454
lwrist -1.62791
lhand -21.7844 -9.88862
lfingers 7.12502
lthumb 4.61692 20.0411
rfemur -38.5132 -2.42958 18.2753
rtibia 69.9587
rfoot -9.58468 -6.47939
rtoes -41.032
lfemur -32.9259 -3.92239 -23.8846
ltibia 18.1384
lfoot -4.78359 4.14097
ltoes -24.0129
441
root 23.4355 16.1051 -0.333615 -160.529 12.4899 177.124
lowerback -27.7876 -1.70384 -8.73473
upperback 0.511209 1.80099 -3.66686
thorax 15.2935 0.527631 1.51292
lowerneck 3.18949 -1.16696 -1.12038
upperneck 14.3861 -1.15279 5.92852
head 4.23216 0.0577647 2.20449
rclavicle 5.96354e-015 -1.59028e-014
rhumerus -38.2082 -10.0065 -82.5159
rradius 34.5159
rwrist -2.75964
rhand -6.66275 -52.3099
rfingers 7.12502
rthumb 19.1952 278.617
lclavicle 5.96354e-015 -1.59028e-014
lhumerus -32.5354 5.6107 77.2162
lradius 28.6911
lwrist -0.702491
lhand -22.4652 -10.0687
lfingers 7.12502
lthumb 3.95959 19.8743
rfemur -39.4194 -2.55522 18.4674
rtibia 69.2389
rfoot -9.82983 -6.89852
rtoes -43.001
lfemur -32.214 -4.04756 -24.0514
ltibia 17.9734
lfoot -4.93165 3.78493
ltoes -24.1125
442
root 23.4252 16.1197 -0.440068 -160.752 11.8553 177.165
lowerback -27.374 -1.86392 -8.63695
upperback 0.660175 1.47883 -3.58952
thorax 15.294 0.375123 1.41923
lowerneck 3.04144 -1.06228 -1.16746
upperneck 14.4253 -1.02395 5.99307
head 4.27077 0.122572 2.24059
rclavicle 1.0138e-014 -3.81667e-014
rhumerus -38.5821 -10.0803 -82.2078
rradius 34.7877
rwrist -3.20704
rhand -6.38561 -54.9549
rfingers 7.12502
rthumb 19.4616 275.999
lclavicle 1.0138e-014 -3.81667e-014
lhumerus -32.2781 4.77532 77.4886
lradius 30.1238
lwrist -0.0411433
lhand -23.1874 -10.7703
lfingers 7.12502
lthumb 3.26216 19.1845
rfemur -40.0835 -2.88309 18.7539
rtibia 67.9085
rfoot -9.89629 -7.7312
rtoes -45.8562
lfemur -31.4423 -4.24602 -24.17
ltibia 17.7355
lfoot -4.92877 3.33414
ltoes -25.4806
443
root 23.4137 16.1326 -0.546779 -160.842 11.2831 177.111
lowerback -27.1528 -2.03314 -8.58782
upperback 0.763852 1.20204 -3.55321
thorax 15.3301 0.246082 1.32601
lowerneck 2.98924 -1.01675 -1.17093
upperneck 14.5149 -0.965526 6.08214
head 4.31246 0.161263 2.27655
rclavicle -4.37326e-015 -1.59028e-015
rhumerus -39.6296 -9.12513 -82.2901
rradius 36.2064
rwrist -4.89618
rhand -6.68896 -55.6102
rfingers 7.12502
rthumb 19.1699 275.315
lclavicle -4.37326e-015 -1.59028e-015
lhumerus -31.9703 4.18679 77.6129
lradius 31.5066
lwrist 0.126701
lhand -23.564 -11.2183
lfingers 7.12502
lthumb 2.89841 18.7417
rfemur -40.8976 -2.95743 18.6987
rtibia 67.9075
rfoot -12.0908 -7.84897
rtoes -43.1926
lfemur -30.7786 -4.47623 -24.4053
ltibia 17.4107
lfoot -4.9593 2.9026
ltoes -26.1481
